<svg width="108" height="148" viewBox="0 0 108 148" fill="none" xmlns="http://www.w3.org/2000/svg">
<path d="M63.5606 96.041C63.6366 94.4862 63.3531 92.9348 62.7322 91.5082C62.1114 90.0816 61.17 88.8185 59.9817 87.8177C58.9337 86.9453 58.0872 85.8548 57.5008 84.6216C56.9145 83.3885 56.6023 82.0421 56.5858 80.6759V73.8197C56.6009 72.4532 56.9125 71.1064 57.499 69.873C58.0854 68.6396 58.9327 67.5493 59.9817 66.6778C61.17 65.677 62.1114 64.4139 62.7322 62.9873C63.3531 61.5607 63.6366 60.0093 63.5606 58.4545C63.5026 55.7675 62.3833 53.2137 60.4489 51.3549C58.5145 49.4961 55.9235 48.4845 53.2458 48.5426C50.5681 48.6008 48.0232 49.724 46.1708 51.6651C44.3183 53.6062 43.3102 56.2062 43.3682 58.8932C43.3661 60.3797 43.6912 61.8483 44.3204 63.1941C44.9497 64.5398 45.8675 65.7294 47.0081 66.6778C48.0542 67.5486 48.8963 68.64 49.4745 69.8744C50.0526 71.1088 50.3526 72.4558 50.3532 73.8197V80.6248C50.3512 81.9885 50.0506 83.3351 49.4725 84.5692C48.8945 85.8034 48.0532 86.895 47.0081 87.7667C45.3684 89.1158 44.1941 90.9492 43.6521 93.0064C43.1101 95.0635 43.228 97.2398 43.989 99.2258C44.7501 101.212 46.1156 102.907 47.8914 104.07C49.6673 105.232 51.7632 105.804 53.8813 105.703C56.4018 105.585 58.7885 104.53 60.5774 102.745C62.3663 100.959 63.4296 98.5696 63.5606 96.041Z" fill="url(#paint0_linear_13_15)"/>
<path d="M41.1619 78.0844C41.2379 76.5295 40.9544 74.9781 40.3335 73.5515C39.7126 72.1249 38.7713 70.8618 37.583 69.8611C36.5339 68.9896 35.6867 67.8993 35.1003 66.6659C34.5138 65.4325 34.2022 64.0857 34.1871 62.7192V55.863C34.2022 54.4965 34.5138 53.1497 35.1003 51.9164C35.6867 50.683 36.5339 49.5926 37.583 48.7212C38.7713 47.7204 39.7126 46.4573 40.3335 45.0307C40.9544 43.6041 41.2379 42.0527 41.1619 40.4978C41.0437 37.8569 39.9005 35.3672 37.9767 33.5611C36.0529 31.755 33.5012 30.776 30.8674 30.8333C28.2335 30.8906 25.7266 31.9797 23.8826 33.8678C22.0386 35.7559 21.004 38.293 21 40.9366C20.9978 42.4231 21.323 43.8917 21.9522 45.2374C22.5815 46.5832 23.4992 47.7728 24.6399 48.7212C25.6866 49.5915 26.529 50.6828 27.1072 51.9173C27.6854 53.1517 27.9851 54.499 27.985 55.863V62.6784C27.9851 64.0424 27.6854 65.3897 27.1072 66.6241C26.529 67.8586 25.6866 68.9499 24.6399 69.8202C23.0187 71.1728 21.8607 73.0011 21.3285 75.0482C20.7964 77.0953 20.9169 79.2583 21.6732 81.2332C22.4294 83.208 23.7833 84.8954 25.5446 86.0581C27.306 87.2209 29.3861 87.8006 31.4927 87.7157C34.0065 87.5957 36.3866 86.5446 38.1727 84.7655C39.9587 82.9864 41.0238 80.6059 41.1619 78.0844Z" fill="url(#paint1_linear_13_15)"/>
<path d="M85.9593 78.0844C86.031 76.5291 85.7445 74.9782 85.122 73.552C84.4996 72.1259 83.558 70.8629 82.3702 69.8611C81.3212 68.9896 80.474 67.8993 79.8875 66.6659C79.3011 65.4325 78.9894 64.0857 78.9743 62.7192V55.863C78.9894 54.4965 79.3011 53.1497 79.8875 51.9164C80.474 50.683 81.3212 49.5926 82.3702 48.7212C83.9634 47.3879 85.1086 45.5944 85.6501 43.5849C86.1915 41.5753 86.1029 39.4471 85.3963 37.4899C84.6897 35.5327 83.3994 33.8413 81.7009 32.646C80.0025 31.4507 77.9783 30.8095 75.9038 30.8095C73.8293 30.8095 71.8051 31.4507 70.1066 32.646C68.4082 33.8413 67.1179 35.5327 66.4113 37.4899C65.7047 39.4471 65.6161 41.5753 66.1575 43.5849C66.699 45.5944 67.8442 47.3879 69.4374 48.7212C70.4824 49.5929 71.3237 50.6845 71.9017 51.9186C72.4798 53.1528 72.7804 54.4994 72.7824 55.863V62.6784C72.7804 64.0421 72.4798 65.3886 71.9017 66.6228C71.3237 67.8569 70.4824 68.9485 69.4374 69.8202C67.8107 71.1693 66.6472 72.9969 66.111 75.0451C65.5749 77.0933 65.6931 79.2587 66.4491 81.2358C67.2051 83.2129 68.5607 84.902 70.3245 86.0646C72.0884 87.2272 74.1715 87.8047 76.28 87.7157C78.7955 87.5982 81.1781 86.5481 82.9663 84.7688C84.7545 82.9895 85.821 80.6076 85.9593 78.0844Z" fill="url(#paint2_linear_13_15)"/>
<path d="M53.4848 36.1617C59.0551 36.1617 63.5708 31.6304 63.5708 26.0407C63.5708 20.451 59.0551 15.9197 53.4848 15.9197C47.9144 15.9197 43.3987 20.451 43.3987 26.0407C43.3987 31.6304 47.9144 36.1617 53.4848 36.1617Z" fill="url(#paint3_linear_13_15)"/>
<path d="M9.46307 119.909V117.364H19.5767V119.909H16.0767V129H12.9631V119.909H9.46307ZM20.7656 129V117.364H25.7884C26.652 117.364 27.4077 117.521 28.0554 117.835C28.7031 118.15 29.2069 118.602 29.5668 119.193C29.9266 119.784 30.1065 120.492 30.1065 121.318C30.1065 122.152 29.9209 122.854 29.5497 123.426C29.1823 123.998 28.6652 124.43 27.9986 124.722C27.3357 125.013 26.5611 125.159 25.6747 125.159H22.6747V122.705H25.0384C25.4096 122.705 25.7259 122.659 25.9872 122.568C26.2524 122.474 26.455 122.324 26.5952 122.119C26.7391 121.915 26.8111 121.648 26.8111 121.318C26.8111 120.985 26.7391 120.714 26.5952 120.506C26.455 120.294 26.2524 120.138 25.9872 120.04C25.7259 119.938 25.4096 119.886 25.0384 119.886H23.9247V129H20.7656ZM27.5838 123.659L30.4929 129H27.0611L24.2202 123.659H27.5838ZM34.6122 117.364V129H31.4531V117.364H34.6122ZM36.1094 129V117.364H39.2685V126.455H43.973V129H36.1094ZM56.0696 123.182C56.0696 124.477 55.8177 125.57 55.3139 126.46C54.8101 127.347 54.1302 128.019 53.2741 128.477C52.4181 128.932 51.4635 129.159 50.4105 129.159C49.3499 129.159 48.3916 128.93 47.5355 128.472C46.6832 128.01 46.0052 127.335 45.5014 126.449C45.0014 125.559 44.7514 124.47 44.7514 123.182C44.7514 121.886 45.0014 120.795 45.5014 119.909C46.0052 119.019 46.6832 118.347 47.5355 117.892C48.3916 117.434 49.3499 117.205 50.4105 117.205C51.4635 117.205 52.4181 117.434 53.2741 117.892C54.1302 118.347 54.8101 119.019 55.3139 119.909C55.8177 120.795 56.0696 121.886 56.0696 123.182ZM52.8196 123.182C52.8196 122.485 52.7268 121.898 52.5412 121.42C52.3594 120.939 52.0885 120.576 51.7287 120.33C51.3726 120.08 50.9332 119.955 50.4105 119.955C49.8878 119.955 49.4465 120.08 49.0866 120.33C48.7306 120.576 48.4598 120.939 48.2741 121.42C48.0923 121.898 48.0014 122.485 48.0014 123.182C48.0014 123.879 48.0923 124.468 48.2741 124.949C48.4598 125.426 48.7306 125.79 49.0866 126.04C49.4465 126.286 49.8878 126.409 50.4105 126.409C50.9332 126.409 51.3726 126.286 51.7287 126.04C52.0885 125.79 52.3594 125.426 52.5412 124.949C52.7268 124.468 52.8196 123.879 52.8196 123.182ZM65.0881 121.205C65.0388 121.004 64.9612 120.828 64.8551 120.676C64.7491 120.521 64.6165 120.39 64.4574 120.284C64.3021 120.174 64.1203 120.093 63.9119 120.04C63.7074 119.983 63.482 119.955 63.2358 119.955C62.7055 119.955 62.2528 120.081 61.8778 120.335C61.5066 120.589 61.2225 120.955 61.0256 121.432C60.8324 121.909 60.7358 122.485 60.7358 123.159C60.7358 123.841 60.8286 124.424 61.0142 124.909C61.1998 125.394 61.4763 125.765 61.8438 126.023C62.2112 126.28 62.6676 126.409 63.2131 126.409C63.6941 126.409 64.0938 126.339 64.4119 126.199C64.7339 126.059 64.9744 125.86 65.1335 125.602C65.2926 125.345 65.3722 125.042 65.3722 124.693L65.9176 124.75H63.2585V122.5H68.4176V124.114C68.4176 125.174 68.1922 126.081 67.7415 126.835C67.2945 127.585 66.6771 128.161 65.8892 128.563C65.1051 128.96 64.2055 129.159 63.1903 129.159C62.0578 129.159 61.0634 128.919 60.2074 128.438C59.3513 127.956 58.6828 127.271 58.2017 126.381C57.7244 125.491 57.4858 124.432 57.4858 123.205C57.4858 122.242 57.6316 121.39 57.9233 120.648C58.2188 119.905 58.6278 119.278 59.1506 118.767C59.6733 118.252 60.2775 117.864 60.9631 117.602C61.6487 117.337 62.3835 117.205 63.1676 117.205C63.857 117.205 64.4972 117.303 65.0881 117.5C65.6828 117.693 66.2074 117.97 66.6619 118.33C67.1203 118.686 67.4896 119.108 67.7699 119.597C68.0502 120.085 68.2206 120.621 68.2812 121.205H65.0881ZM73.0497 117.364V129H69.8906V117.364H73.0497ZM74.5469 129V117.364H77.706V122.068H77.8651L81.3651 117.364H85.0469L81.1151 122.545L85.1378 129H81.3651L78.7514 124.636L77.706 126V129H74.5469ZM89.0071 129H85.598L89.4389 117.364H93.7571L97.598 129H94.1889L91.6435 120.568H91.5526L89.0071 129ZM88.3707 124.409H94.7798V126.773H88.3707V124.409Z" fill="#1E293B"/>
<defs>
<linearGradient id="paint0_linear_13_15" x1="53.5" y1="15.9197" x2="53.5" y2="105.714" gradientUnits="userSpaceOnUse">
<stop stop-color="#3B82F6"/>
<stop offset="0.9999" stop-color="#8B5CF6"/>
<stop offset="1" stop-color="#6366F1"/>
</linearGradient>
<linearGradient id="paint1_linear_13_15" x1="53.5" y1="15.9197" x2="53.5" y2="105.714" gradientUnits="userSpaceOnUse">
<stop stop-color="#3B82F6"/>
<stop offset="0.9999" stop-color="#8B5CF6"/>
<stop offset="1" stop-color="#6366F1"/>
</linearGradient>
<linearGradient id="paint2_linear_13_15" x1="53.5" y1="15.9197" x2="53.5" y2="105.714" gradientUnits="userSpaceOnUse">
<stop stop-color="#3B82F6"/>
<stop offset="0.9999" stop-color="#8B5CF6"/>
<stop offset="1" stop-color="#6366F1"/>
</linearGradient>
<linearGradient id="paint3_linear_13_15" x1="53.5" y1="15.9197" x2="53.5" y2="105.714" gradientUnits="userSpaceOnUse">
<stop stop-color="#3B82F6"/>
<stop offset="0.9999" stop-color="#8B5CF6"/>
<stop offset="1" stop-color="#6366F1"/>
</linearGradient>
</defs>
</svg>
