<svg width="255" height="57" viewBox="0 0 255 57" fill="none" xmlns="http://www.w3.org/2000/svg">
<path d="M26.8459 50.8596C26.8939 49.8726 26.715 48.8878 26.3234 47.9822C25.9318 47.0766 25.338 46.2748 24.5885 45.6396C23.9274 45.0858 23.3935 44.3935 23.0236 43.6107C22.6537 42.8279 22.4568 41.9733 22.4464 41.106V36.7539C22.4559 35.8864 22.6525 35.0315 23.0224 34.2486C23.3924 33.4657 23.9268 32.7735 24.5885 32.2203C25.338 31.5851 25.9318 30.7833 26.3234 29.8777C26.715 28.9721 26.8939 27.9873 26.8459 27.0003C26.8094 25.2947 26.1033 23.6736 24.8832 22.4936C23.663 21.3137 22.0287 20.6715 20.3397 20.7085C18.6507 20.7454 17.0454 21.4584 15.8769 22.6905C14.7085 23.9227 14.0726 25.5732 14.1092 27.2788C14.1078 28.2224 14.3129 29.1547 14.7098 30.0089C15.1067 30.8632 15.6856 31.6183 16.4051 32.2203C17.065 32.7731 17.5961 33.4659 17.9608 34.2495C18.3255 35.033 18.5147 35.8881 18.5151 36.7539V41.0737C18.5139 41.9393 18.3242 42.7941 17.9596 43.5775C17.595 44.3609 17.0643 45.0538 16.4051 45.6072C15.3708 46.4636 14.6301 47.6274 14.2882 48.9332C13.9464 50.2391 14.0207 51.6205 14.5008 52.8812C14.9808 54.1419 15.8421 55.2178 16.9623 55.9559C18.0824 56.694 19.4045 57.0568 20.7405 56.9928C22.3304 56.9178 23.8358 56.2485 24.9642 55.115C26.0926 53.9814 26.7633 52.4647 26.8459 50.8596Z" fill="url(#paint0_linear_13_32)"/>
<path d="M12.7175 39.461C12.7655 38.474 12.5866 37.4892 12.195 36.5836C11.8034 35.6781 11.2096 34.8763 10.46 34.241C9.79834 33.6878 9.26393 32.9957 8.89401 32.2128C8.52409 31.4298 8.32753 30.5749 8.31801 29.7075V25.3553C8.32753 24.4879 8.52409 23.633 8.89401 22.85C9.26393 22.0671 9.79834 21.375 10.46 20.8218C11.2096 20.1865 11.8034 19.3847 12.195 18.4791C12.5866 17.5736 12.7655 16.5888 12.7175 15.6018C12.643 13.9253 11.9218 12.3449 10.7084 11.1985C9.49489 10.052 7.88538 9.4305 6.22403 9.46688C4.56269 9.50326 2.98137 10.1946 1.81825 11.3931C0.655128 12.5916 0.00252866 14.2021 6.79979e-06 15.8803C-0.00136133 16.8239 0.203739 17.7561 0.600642 18.6104C0.997545 19.4646 1.57645 20.2198 2.29595 20.8218C2.95615 21.3743 3.48753 22.067 3.85224 22.8506C4.21695 23.6342 4.406 24.4895 4.40592 25.3553V29.6816C4.406 30.5474 4.21695 31.4026 3.85224 32.1863C3.48753 32.9699 2.95615 33.6626 2.29595 34.2151C1.27336 35.0737 0.5429 36.2342 0.207239 37.5337C-0.128423 38.8332 -0.0524061 40.2062 0.424604 41.4598C0.901614 42.7134 1.75563 43.7845 2.86662 44.5226C3.97761 45.2607 5.28971 45.6287 6.61849 45.5748C8.20409 45.4987 9.70539 44.8314 10.832 43.7021C11.9586 42.5728 12.6304 41.0616 12.7175 39.461Z" fill="url(#paint1_linear_13_32)"/>
<path d="M40.9743 39.461C41.0195 38.4738 40.8388 37.4893 40.4462 36.584C40.0536 35.6787 39.4596 34.8769 38.7105 34.241C38.0488 33.6878 37.5144 32.9957 37.1444 32.2128C36.7745 31.4298 36.5779 30.5749 36.5684 29.7075V25.3553C36.5779 24.4879 36.7745 23.633 37.1444 22.85C37.5144 22.0671 38.0488 21.375 38.7105 20.8218C39.7154 19.9754 40.4377 18.837 40.7793 17.5614C41.1208 16.2857 41.0649 14.9348 40.6192 13.6924C40.1735 12.45 39.3596 11.3763 38.2883 10.6176C37.217 9.85882 35.9402 9.45176 34.6316 9.45176C33.3231 9.45176 32.0463 9.85882 30.975 10.6176C29.9036 11.3763 29.0898 12.45 28.6441 13.6924C28.1983 14.9348 28.1425 16.2857 28.484 17.5614C28.8255 18.837 29.5479 19.9754 30.5528 20.8218C31.212 21.3752 31.7426 22.0681 32.1073 22.8515C32.4719 23.6349 32.6615 24.4897 32.6628 25.3553V29.6816C32.6615 30.5472 32.4719 31.402 32.1073 32.1854C31.7426 32.9688 31.212 33.6617 30.5528 34.2151C29.5267 35.0715 28.7928 36.2316 28.4546 37.5317C28.1165 38.8319 28.1911 40.2064 28.6679 41.4615C29.1448 42.7165 29.9998 43.7887 31.1124 44.5267C32.225 45.2647 33.539 45.6313 34.8689 45.5748C36.4557 45.5002 37.9585 44.8336 39.0864 43.7042C40.2144 42.5747 40.8871 41.0627 40.9743 39.461Z" fill="url(#paint2_linear_13_32)"/>
<path d="M20.4904 12.8493C24.004 12.8493 26.8523 9.97287 26.8523 6.42464C26.8523 2.87641 24.004 0 20.4904 0C16.9768 0 14.1284 2.87641 14.1284 6.42464C14.1284 9.97287 16.9768 12.8493 20.4904 12.8493Z" fill="url(#paint3_linear_13_32)"/>
<path d="M54.9716 21.5455V15.8182H77.7273V21.5455H69.8523V42H62.8466V21.5455H54.9716ZM80.4023 42V15.8182H91.7035C93.6467 15.8182 95.3469 16.1719 96.8043 16.8793C98.2617 17.5866 99.3952 18.6051 100.205 19.9347C101.015 21.2642 101.419 22.858 101.419 24.7159C101.419 26.5909 101.002 28.1719 100.167 29.4588C99.3398 30.7457 98.1765 31.7173 96.6765 32.3736C95.185 33.0298 93.4421 33.358 91.4478 33.358H84.6978V27.8352H90.016C90.8512 27.8352 91.5629 27.733 92.1509 27.5284C92.7475 27.3153 93.2035 26.9787 93.5188 26.5185C93.8427 26.0582 94.0046 25.4574 94.0046 24.7159C94.0046 23.9659 93.8427 23.3565 93.5188 22.8878C93.2035 22.4105 92.7475 22.0611 92.1509 21.8395C91.5629 21.6094 90.8512 21.4943 90.016 21.4943H87.5103V42H80.4023ZM95.7433 29.983L102.289 42H94.5671L88.1751 29.983H95.7433ZM111.557 15.8182V42H104.449V15.8182H111.557ZM114.926 42V15.8182H122.034V36.2727H132.619V42H114.926ZM159.836 28.9091C159.836 31.8239 159.27 34.2827 158.136 36.2855C157.002 38.2798 155.473 39.7926 153.547 40.8239C151.62 41.8466 149.473 42.358 147.103 42.358C144.717 42.358 142.561 41.8423 140.635 40.8111C138.717 39.7713 137.191 38.2543 136.058 36.2599C134.933 34.2571 134.37 31.8068 134.37 28.9091C134.37 25.9943 134.933 23.5398 136.058 21.5455C137.191 19.5426 138.717 18.0298 140.635 17.0071C142.561 15.9759 144.717 15.4602 147.103 15.4602C149.473 15.4602 151.62 15.9759 153.547 17.0071C155.473 18.0298 157.002 19.5426 158.136 21.5455C159.27 23.5398 159.836 25.9943 159.836 28.9091ZM152.524 28.9091C152.524 27.3409 152.315 26.0199 151.897 24.946C151.488 23.8636 150.879 23.0455 150.069 22.4915C149.268 21.929 148.279 21.6477 147.103 21.6477C145.927 21.6477 144.934 21.929 144.125 22.4915C143.324 23.0455 142.714 23.8636 142.297 24.946C141.887 26.0199 141.683 27.3409 141.683 28.9091C141.683 30.4773 141.887 31.8026 142.297 32.8849C142.714 33.9588 143.324 34.777 144.125 35.3395C144.934 35.8935 145.927 36.1705 147.103 36.1705C148.279 36.1705 149.268 35.8935 150.069 35.3395C150.879 34.777 151.488 33.9588 151.897 32.8849C152.315 31.8026 152.524 30.4773 152.524 28.9091ZM180.128 24.4602C180.017 24.0085 179.842 23.6122 179.604 23.2713C179.365 22.9219 179.067 22.6278 178.709 22.3892C178.359 22.142 177.95 21.9588 177.482 21.8395C177.021 21.7116 176.514 21.6477 175.96 21.6477C174.767 21.6477 173.749 21.9332 172.905 22.5043C172.07 23.0753 171.43 23.8977 170.987 24.9716C170.553 26.0455 170.335 27.3409 170.335 28.858C170.335 30.392 170.544 31.7045 170.962 32.7955C171.379 33.8864 172.001 34.7216 172.828 35.3011C173.655 35.8807 174.682 36.1705 175.909 36.1705C176.991 36.1705 177.891 36.0128 178.607 35.6974C179.331 35.3821 179.872 34.9347 180.23 34.3551C180.588 33.7756 180.767 33.0937 180.767 32.3097L181.994 32.4375H176.011V27.375H187.619V31.0057C187.619 33.392 187.112 35.4332 186.098 37.1293C185.092 38.8168 183.703 40.1122 181.93 41.0156C180.166 41.9105 178.142 42.358 175.858 42.358C173.31 42.358 171.072 41.8168 169.146 40.7344C167.22 39.652 165.716 38.1094 164.634 36.1065C163.56 34.1037 163.023 31.7216 163.023 28.9602C163.023 26.7955 163.351 24.8778 164.007 23.2074C164.672 21.5369 165.592 20.1264 166.768 18.9759C167.945 17.8168 169.304 16.9432 170.847 16.3551C172.389 15.7585 174.043 15.4602 175.807 15.4602C177.358 15.4602 178.798 15.6818 180.128 16.125C181.466 16.5597 182.646 17.1818 183.669 17.9915C184.7 18.7926 185.531 19.7429 186.162 20.8423C186.793 21.9418 187.176 23.1477 187.312 24.4602H180.128ZM198.042 15.8182V42H190.934V15.8182H198.042ZM201.41 42V15.8182H208.518V26.4034H208.876L216.751 15.8182H225.035L216.189 27.4773L225.24 42H216.751L210.87 32.1818L208.518 35.25V42H201.41ZM233.946 42H226.275L234.917 15.8182H244.633L253.275 42H245.605L239.877 23.0284H239.673L233.946 42ZM232.514 31.6705H246.934V36.9886H232.514V31.6705Z" fill="#1E293B"/>
<defs>
<linearGradient id="paint0_linear_13_32" x1="20.5" y1="0" x2="20.5" y2="57" gradientUnits="userSpaceOnUse">
<stop stop-color="#3B82F6"/>
<stop offset="0.9999" stop-color="#8B5CF6"/>
<stop offset="1" stop-color="#6366F1"/>
</linearGradient>
<linearGradient id="paint1_linear_13_32" x1="20.5" y1="0" x2="20.5" y2="57" gradientUnits="userSpaceOnUse">
<stop stop-color="#3B82F6"/>
<stop offset="0.9999" stop-color="#8B5CF6"/>
<stop offset="1" stop-color="#6366F1"/>
</linearGradient>
<linearGradient id="paint2_linear_13_32" x1="20.5" y1="0" x2="20.5" y2="57" gradientUnits="userSpaceOnUse">
<stop stop-color="#3B82F6"/>
<stop offset="0.9999" stop-color="#8B5CF6"/>
<stop offset="1" stop-color="#6366F1"/>
</linearGradient>
<linearGradient id="paint3_linear_13_32" x1="20.5" y1="0" x2="20.5" y2="57" gradientUnits="userSpaceOnUse">
<stop stop-color="#3B82F6"/>
<stop offset="0.9999" stop-color="#8B5CF6"/>
<stop offset="1" stop-color="#6366F1"/>
</linearGradient>
</defs>
</svg>
