<svg width="108" height="148" viewBox="0 0 108 148" fill="none" xmlns="http://www.w3.org/2000/svg">
<rect width="108" height="148" fill="white"/>
<path d="M64.5606 96.041C64.6366 94.4862 64.3531 92.9348 63.7322 91.5082C63.1114 90.0816 62.17 88.8185 60.9817 87.8177C59.9337 86.9453 59.0872 85.8548 58.5008 84.6216C57.9145 83.3885 57.6023 82.0421 57.5858 80.6759V73.8197C57.6009 72.4532 57.9125 71.1064 58.499 69.873C59.0854 68.6396 59.9327 67.5493 60.9817 66.6778C62.17 65.677 63.1114 64.4139 63.7322 62.9873C64.3531 61.5607 64.6366 60.0093 64.5606 58.4545C64.5026 55.7675 63.3833 53.2137 61.4489 51.3549C59.5145 49.4961 56.9235 48.4845 54.2458 48.5426C51.5681 48.6008 49.0232 49.724 47.1708 51.6651C45.3183 53.6062 44.3102 56.2062 44.3682 58.8932C44.3661 60.3797 44.6912 61.8483 45.3204 63.1941C45.9497 64.5398 46.8675 65.7294 48.0081 66.6778C49.0542 67.5486 49.8963 68.64 50.4745 69.8744C51.0526 71.1088 51.3526 72.4558 51.3532 73.8197V80.6248C51.3512 81.9885 51.0506 83.3351 50.4725 84.5692C49.8945 85.8034 49.0532 86.895 48.0081 87.7667C46.3684 89.1158 45.1941 90.9492 44.6521 93.0064C44.1101 95.0635 44.228 97.2398 44.989 99.2258C45.7501 101.212 47.1156 102.907 48.8914 104.07C50.6673 105.232 52.7632 105.804 54.8813 105.703C57.4018 105.585 59.7885 104.53 61.5774 102.745C63.3663 100.959 64.4296 98.5696 64.5606 96.041Z" fill="black"/>
<path d="M42.1619 78.0844C42.2379 76.5295 41.9544 74.9781 41.3335 73.5515C40.7126 72.1249 39.7713 70.8618 38.583 69.8611C37.5339 68.9896 36.6867 67.8993 36.1003 66.6659C35.5138 65.4325 35.2022 64.0857 35.1871 62.7192V55.863C35.2022 54.4965 35.5138 53.1497 36.1003 51.9164C36.6867 50.683 37.5339 49.5926 38.583 48.7212C39.7713 47.7204 40.7126 46.4573 41.3335 45.0307C41.9544 43.6041 42.2379 42.0527 42.1619 40.4978C42.0437 37.8569 40.9005 35.3672 38.9767 33.5611C37.0529 31.755 34.5012 30.776 31.8674 30.8333C29.2335 30.8906 26.7266 31.9797 24.8826 33.8678C23.0386 35.7559 22.004 38.293 22 40.9366C21.9978 42.4231 22.323 43.8917 22.9522 45.2374C23.5815 46.5832 24.4992 47.7728 25.6399 48.7212C26.6866 49.5915 27.529 50.6828 28.1072 51.9173C28.6854 53.1517 28.9851 54.499 28.985 55.863V62.6784C28.9851 64.0424 28.6854 65.3897 28.1072 66.6241C27.529 67.8586 26.6866 68.9499 25.6399 69.8202C24.0187 71.1728 22.8607 73.0011 22.3285 75.0482C21.7964 77.0953 21.9169 79.2583 22.6732 81.2332C23.4294 83.208 24.7833 84.8954 26.5446 86.0581C28.306 87.2209 30.3861 87.8006 32.4927 87.7157C35.0065 87.5957 37.3866 86.5446 39.1727 84.7655C40.9587 82.9864 42.0238 80.6059 42.1619 78.0844Z" fill="black"/>
<path d="M86.9593 78.0844C87.031 76.5291 86.7445 74.9782 86.122 73.552C85.4996 72.1259 84.558 70.8629 83.3702 69.8611C82.3212 68.9896 81.474 67.8993 80.8875 66.6659C80.3011 65.4325 79.9894 64.0857 79.9743 62.7192V55.863C79.9894 54.4965 80.3011 53.1497 80.8875 51.9164C81.474 50.683 82.3212 49.5926 83.3702 48.7212C84.9634 47.3879 86.1086 45.5944 86.6501 43.5849C87.1915 41.5753 87.1029 39.4471 86.3963 37.4899C85.6897 35.5327 84.3994 33.8413 82.7009 32.646C81.0025 31.4507 78.9783 30.8095 76.9038 30.8095C74.8293 30.8095 72.8051 31.4507 71.1066 32.646C69.4082 33.8413 68.1179 35.5327 67.4113 37.4899C66.7047 39.4471 66.6161 41.5753 67.1575 43.5849C67.699 45.5944 68.8442 47.3879 70.4374 48.7212C71.4824 49.5929 72.3237 50.6845 72.9017 51.9186C73.4798 53.1528 73.7804 54.4994 73.7824 55.863V62.6784C73.7804 64.0421 73.4798 65.3886 72.9017 66.6228C72.3237 67.8569 71.4824 68.9485 70.4374 69.8202C68.8107 71.1693 67.6472 72.9969 67.111 75.0451C66.5749 77.0933 66.6931 79.2587 67.4491 81.2358C68.2051 83.2129 69.5607 84.902 71.3245 86.0646C73.0884 87.2272 75.1715 87.8047 77.28 87.7157C79.7955 87.5982 82.1781 86.5481 83.9663 84.7688C85.7545 82.9895 86.821 80.6076 86.9593 78.0844Z" fill="black"/>
<path d="M54.4848 36.1617C60.0551 36.1617 64.5708 31.6304 64.5708 26.0407C64.5708 20.451 60.0551 15.9197 54.4848 15.9197C48.9144 15.9197 44.3987 20.451 44.3987 26.0407C44.3987 31.6304 48.9144 36.1617 54.4848 36.1617Z" fill="black"/>
<path d="M10.4631 119.909V117.364H20.5767V119.909H17.0767V129H13.9631V119.909H10.4631ZM21.7656 129V117.364H26.7884C27.652 117.364 28.4077 117.521 29.0554 117.835C29.7031 118.15 30.2069 118.602 30.5668 119.193C30.9266 119.784 31.1065 120.492 31.1065 121.318C31.1065 122.152 30.9209 122.854 30.5497 123.426C30.1823 123.998 29.6652 124.43 28.9986 124.722C28.3357 125.013 27.5611 125.159 26.6747 125.159H23.6747V122.705H26.0384C26.4096 122.705 26.7259 122.659 26.9872 122.568C27.2524 122.474 27.455 122.324 27.5952 122.119C27.7391 121.915 27.8111 121.648 27.8111 121.318C27.8111 120.985 27.7391 120.714 27.5952 120.506C27.455 120.294 27.2524 120.138 26.9872 120.04C26.7259 119.938 26.4096 119.886 26.0384 119.886H24.9247V129H21.7656ZM28.5838 123.659L31.4929 129H28.0611L25.2202 123.659H28.5838ZM35.6122 117.364V129H32.4531V117.364H35.6122ZM37.1094 129V117.364H40.2685V126.455H44.973V129H37.1094ZM57.0696 123.182C57.0696 124.477 56.8177 125.57 56.3139 126.46C55.8101 127.347 55.1302 128.019 54.2741 128.477C53.4181 128.932 52.4635 129.159 51.4105 129.159C50.3499 129.159 49.3916 128.93 48.5355 128.472C47.6832 128.01 47.0052 127.335 46.5014 126.449C46.0014 125.559 45.7514 124.47 45.7514 123.182C45.7514 121.886 46.0014 120.795 46.5014 119.909C47.0052 119.019 47.6832 118.347 48.5355 117.892C49.3916 117.434 50.3499 117.205 51.4105 117.205C52.4635 117.205 53.4181 117.434 54.2741 117.892C55.1302 118.347 55.8101 119.019 56.3139 119.909C56.8177 120.795 57.0696 121.886 57.0696 123.182ZM53.8196 123.182C53.8196 122.485 53.7268 121.898 53.5412 121.42C53.3594 120.939 53.0885 120.576 52.7287 120.33C52.3726 120.08 51.9332 119.955 51.4105 119.955C50.8878 119.955 50.4465 120.08 50.0866 120.33C49.7306 120.576 49.4598 120.939 49.2741 121.42C49.0923 121.898 49.0014 122.485 49.0014 123.182C49.0014 123.879 49.0923 124.468 49.2741 124.949C49.4598 125.426 49.7306 125.79 50.0866 126.04C50.4465 126.286 50.8878 126.409 51.4105 126.409C51.9332 126.409 52.3726 126.286 52.7287 126.04C53.0885 125.79 53.3594 125.426 53.5412 124.949C53.7268 124.468 53.8196 123.879 53.8196 123.182ZM66.0881 121.205C66.0388 121.004 65.9612 120.828 65.8551 120.676C65.7491 120.521 65.6165 120.39 65.4574 120.284C65.3021 120.174 65.1203 120.093 64.9119 120.04C64.7074 119.983 64.482 119.955 64.2358 119.955C63.7055 119.955 63.2528 120.081 62.8778 120.335C62.5066 120.589 62.2225 120.955 62.0256 121.432C61.8324 121.909 61.7358 122.485 61.7358 123.159C61.7358 123.841 61.8286 124.424 62.0142 124.909C62.1998 125.394 62.4763 125.765 62.8438 126.023C63.2112 126.28 63.6676 126.409 64.2131 126.409C64.6941 126.409 65.0938 126.339 65.4119 126.199C65.7339 126.059 65.9744 125.86 66.1335 125.602C66.2926 125.345 66.3722 125.042 66.3722 124.693L66.9176 124.75H64.2585V122.5H69.4176V124.114C69.4176 125.174 69.1922 126.081 68.7415 126.835C68.2945 127.585 67.6771 128.161 66.8892 128.563C66.1051 128.96 65.2055 129.159 64.1903 129.159C63.0578 129.159 62.0634 128.919 61.2074 128.438C60.3513 127.956 59.6828 127.271 59.2017 126.381C58.7244 125.491 58.4858 124.432 58.4858 123.205C58.4858 122.242 58.6316 121.39 58.9233 120.648C59.2188 119.905 59.6278 119.278 60.1506 118.767C60.6733 118.252 61.2775 117.864 61.9631 117.602C62.6487 117.337 63.3835 117.205 64.1676 117.205C64.857 117.205 65.4972 117.303 66.0881 117.5C66.6828 117.693 67.2074 117.97 67.6619 118.33C68.1203 118.686 68.4896 119.108 68.7699 119.597C69.0502 120.085 69.2206 120.621 69.2812 121.205H66.0881ZM74.0497 117.364V129H70.8906V117.364H74.0497ZM75.5469 129V117.364H78.706V122.068H78.8651L82.3651 117.364H86.0469L82.1151 122.545L86.1378 129H82.3651L79.7514 124.636L78.706 126V129H75.5469ZM90.0071 129H86.598L90.4389 117.364H94.7571L98.598 129H95.1889L92.6435 120.568H92.5526L90.0071 129ZM89.3707 124.409H95.7798V126.773H89.3707V124.409Z" fill="black"/>
</svg>
